<svg xmlns="http://www.w3.org/2000/svg" viewBox="-1024 -1024 2048 2048"><circle cx="0" cy="0" r="1000" fill="none" stroke="#038a06" stroke-width="8"/><circle cx="309" cy="951" r="20" fill="#FA8964" opacity=".5"/><circle cx="-700" cy="509" r="20" fill="#FA8964" opacity=".25"/><circle cx="-700" cy="-509" r="20" fill="#FA8964" opacity=".75"/><circle cx="204" cy="-629" r="20" fill="#FA8964" opacity=".125"/><circle cx="937" cy="240" r="20" fill="#FA8964" opacity=".625"/><circle cx="60" cy="966" r="20" fill="#FA8964" opacity=".375"/><circle cx="-614" cy="243" r="20" fill="#FA8964" opacity=".875"/><circle cx="-308" cy="-373" r="20" fill="#FA8964" opacity=".063"/><circle cx="531" cy="-837" r="20" fill="#FA8964" opacity=".563"/><circle cx="812" cy="446" r="20" fill="#FA8964" opacity=".313"/><circle cx="-146" cy="766" r="20" fill="#FA8964" opacity=".813"/><circle cx="-774" cy="97" r="20" fill="#FA8964" opacity=".188"/><circle cx="-394" cy="-838" r="20" fill="#FA8964" opacity=".688"/><circle cx="723" cy="-679" r="20" fill="#FA8964" opacity=".438"/><circle cx="352" cy="331" r="20" fill="#FA8964" opacity=".938"/><circle cx="-148" cy="314" r="20" fill="#FA8964" opacity=".031"/><circle cx="-990" cy="-125" r="20" fill="#FA8964" opacity=".531"/><circle cx="-168" cy="-883" r="20" fill="#FA8964" opacity=".281"/><circle cx="724" cy="-398" r="20" fill="#FA8964" opacity=".781"/><circle cx="389" cy="613" r="20" fill="#FA8964" opacity=".156"/><circle cx="-605" cy="731" r="20" fill="#FA8964" opacity=".656"/><circle cx="-913" cy="-361" r="20" fill="#FA8964" opacity=".406"/><circle cx="36" cy="-581" r="20" fill="#FA8964" opacity=".906"/><circle cx="564" cy="-144" r="20" fill="#FA8964" opacity=".094"/><circle cx="981" cy="49" r="20" fill="#FA8964" opacity=".594"/><circle cx="247" cy="917" r="20" fill="#FA8964" opacity=".344"/><circle cx="-608" cy="396" r="20" fill="#FA8964" opacity=".844"/><circle cx="-643" cy="-518" r="20" fill="#FA8964" opacity=".219"/><circle cx="320" cy="-840" r="20" fill="#FA8964" opacity=".719"/><circle cx="952" cy="296" r="20" fill="#FA8964" opacity=".469"/><circle cx="4" cy="347" r="20" fill="#FA8964" opacity=".969"/><circle cx="-234" cy="79" r="20" fill="#FA8964" opacity=".016"/><circle cx="-597" cy="-801" r="20" fill="#FA8964" opacity=".516"/><circle cx="510" cy="-721" r="20" fill="#FA8964" opacity=".266"/><circle cx="720" cy="444" r="20" fill="#FA8964" opacity=".766"/><circle cx="-164" cy="675" r="20" fill="#FA8964" opacity=".141"/><circle cx="-956" cy="72" r="20" fill="#FA8964" opacity=".641"/><circle cx="-370" cy="-902" r="20" fill="#FA8964" opacity=".391"/><circle cx="475" cy="-403" r="20" fill="#FA8964" opacity=".891"/><circle cx="372" cy="386" r="20" fill="#FA8964" opacity=".078"/><circle cx="-464" cy="871" r="20" fill="#FA8964" opacity=".578"/><circle cx="-924" cy="-164" r="20" fill="#FA8964" opacity=".328"/><circle cx="-103" cy="-747" r="20" fill="#FA8964" opacity=".828"/><circle cx="723" cy="-351" r="20" fill="#FA8964" opacity=".203"/><circle cx="450" cy="795" r="20" fill="#FA8964" opacity=".703"/><circle cx="-672" cy="734" r="20" fill="#FA8964" opacity=".453"/><circle cx="-384" cy="-175" r="20" fill="#FA8964" opacity=".953"/><circle cx="47" cy="-420" r="20" fill="#FA8964" opacity=".047"/><circle cx="975" cy="-198" r="20" fill="#FA8964" opacity=".547"/><circle cx="909" cy="91" r="20" fill="#FA8964" opacity=".297"/><circle cx="170" cy="786" r="20" fill="#8964FA" opacity=".797"/><circle cx="-651" cy="380" r="20" fill="#8964FA" opacity=".172"/><circle cx="-700" cy="-625" r="20" fill="#8964FA" opacity=".672"/><circle cx="397" cy="-903" r="20" fill="#8964FA" opacity=".422"/><circle cx="503" cy="184" r="20" fill="#8964FA" opacity=".922"/><circle cx="-23" cy="623" r="20" fill="#8964FA" opacity=".109"/><circle cx="-938" cy="266" r="20" fill="#8964FA" opacity=".609"/><circle cx="-534" cy="-797" r="20" fill="#8964FA" opacity=".359"/><circle cx="429" cy="-546" r="20" fill="#8964FA" opacity=".859"/><circle cx="697" cy="480" r="20" fill="#8964FA" opacity=".234"/><circle cx="-251" cy="846" r="20" fill="#8964FA" opacity=".734"/><circle cx="-999" cy="25" r="20" fill="#8964FA" opacity=".484"/><circle cx="-82" cy="-233" r="20" fill="#8964FA" opacity=".984"/><circle cx="139" cy="-107" r="20" fill="#8964FA" opacity=".008"/><circle cx="656" cy="754" r="20" fill="#8964FA" opacity=".508"/><circle cx="-450" cy="750" r="20" fill="#8964FA" opacity=".258"/><circle cx="-834" cy="-192" r="20" fill="#8964FA" opacity=".758"/><circle cx="-59" cy="-676" r="20" fill="#8964FA" opacity=".133"/><circle cx="887" cy="-377" r="20" fill="#8964FA" opacity=".633"/><circle cx="435" cy="868" r="20" fill="#8964FA" opacity=".383"/><circle cx="-457" cy="452" r="20" fill="#8964FA" opacity=".883"/><circle cx="-454" cy="-235" r="20" fill="#8964FA" opacity=".07"/><circle cx="161" cy="-976" r="20" fill="#8964FA" opacity=".57"/><circle cx="922" cy="-140" r="20" fill="#8964FA" opacity=".32"/><circle cx="759" cy="115" r="20" fill="#8964FA" opacity=".82"/><circle cx="128" cy="782" r="20" fill="#8964FA" opacity=".195"/><circle cx="-817" cy="423" r="20" fill="#8964FA" opacity=".695"/><circle cx="-707" cy="-698" r="20" fill="#8964FA" opacity=".445"/><circle cx="203" cy="-406" r="20" fill="#8964FA" opacity=".945"/><circle cx="356" cy="151" r="20" fill="#8964FA" opacity=".039"/><circle cx="-87" cy="993" r="20" fill="#8964FA" opacity=".539"/><circle cx="-883" cy="203" r="20" fill="#8964FA" opacity=".289"/><circle cx="-419" cy="-699" r="20" fill="#8964FA" opacity=".789"/><circle cx="486" cy="-558" r="20" fill="#8964FA" opacity=".164"/><circle cx="750" cy="574" r="20" fill="#8964FA" opacity=".664"/><circle cx="-327" cy="928" r="20" fill="#8964FA" opacity=".414"/><circle cx="-560" cy="-14" r="20" fill="#8964FA" opacity=".914"/><circle cx="-172" cy="-579" r="20" fill="#8964FA" opacity=".102"/><circle cx="806" cy="-555" r="20" fill="#8964FA" opacity=".602"/><circle cx="590" cy="750" r="20" fill="#8964FA" opacity=".352"/><circle cx="-395" cy="590" r="20" fill="#8964FA" opacity=".852"/><circle cx="-805" cy="-228" r="20" fill="#8964FA" opacity=".227"/><circle cx="-33" cy="-890" r="20" fill="#8964FA" opacity=".727"/><circle cx="937" cy="-344" r="20" fill="#8964FA" opacity=".477"/><circle cx="121" cy="276" r="20" fill="#8964FA" opacity=".977"/><circle cx="-225" cy="201" r="20" fill="#8964FA" opacity=".023"/><circle cx="-862" cy="-503" r="20" fill="#8964FA" opacity=".523"/><circle cx="188" cy="-871" r="20" fill="#8964FA" opacity=".273"/><circle cx="832" cy="-84" r="20" fill="#8964FA" opacity=".773"/><circle cx="696" cy="142" r="20" fill="#8964FA" opacity=".148"/></svg>